<svg xmlns="http://www.w3.org/2000/svg" viewBox="0 0 960 600" width="960" height="600" role="img" aria-labelledby="why-ai-wants-names-title why-ai-wants-names-desc" style="max-width:100%;height:auto">
<title id="why-ai-wants-names-title">Memory needs a place to return to</title>
<desc id="why-ai-wants-names-desc">A three-dimensional constellation of periwinkle memory points surrounds a persistent teal cube. Faint wireframe echoes suggest recalled views while the central object remains solid.</desc>
<defs>
  <linearGradient id="background" x2="1" y2="1"><stop stop-color="#111820"/><stop offset=".65" stop-color="#0b0f14"/><stop offset="1" stop-color="#101720"/></linearGradient>
  <radialGradient id="ambient"><stop stop-color="#4dd0c4" stop-opacity=".13"/><stop offset="1" stop-color="#4dd0c4" stop-opacity="0"/></radialGradient>
  <radialGradient id="blueAmbient"><stop stop-color="#7c8cff" stop-opacity=".14"/><stop offset="1" stop-color="#7c8cff" stop-opacity="0"/></radialGradient>
  <radialGradient id="coralAmbient"><stop stop-color="#ff7a59" stop-opacity=".1"/><stop offset="1" stop-color="#ff7a59" stop-opacity="0"/></radialGradient>
  <linearGradient id="faceTop" x2=".9" y2="1"><stop stop-color="#345765"/><stop offset="1" stop-color="#16323a"/></linearGradient>
  <linearGradient id="faceLeft" x2="1" y2="1"><stop stop-color="#19313c"/><stop offset="1" stop-color="#0d1b22"/></linearGradient>
  <linearGradient id="faceRight" x2="0" y2="1"><stop stop-color="#25414d"/><stop offset="1" stop-color="#12222c"/></linearGradient>
  <linearGradient id="slab" x2="1" y2="1"><stop stop-color="#172631" stop-opacity=".95"/><stop offset="1" stop-color="#0e1b22" stop-opacity=".95"/></linearGradient>
  <linearGradient id="ribbon" x1="0" y1="0" x2="1" y2="0"><stop stop-color="#7c8cff"/><stop offset=".48" stop-color="#4dd0c4"/><stop offset=".8" stop-color="#4dd0c4"/><stop offset="1" stop-color="#ff7a59"/></linearGradient>
  <linearGradient id="scan" x2=".4" y2="1"><stop stop-color="#ff7a59" stop-opacity=".18"/><stop offset="1" stop-color="#ff7a59" stop-opacity="0"/></linearGradient>
  <pattern id="dots" width="22" height="22" patternUnits="userSpaceOnUse"><circle cx="1" cy="1" r=".7" fill="#71818d" opacity=".22"/></pattern>
  <pattern id="fineGrid" width="44" height="44" patternUnits="userSpaceOnUse"><path d="M44 0H0V44" fill="none" stroke="#6c8790" stroke-width=".5" opacity=".13"/></pattern>
  <filter id="glow" x="-100%" y="-100%" width="300%" height="300%"><feGaussianBlur stdDeviation="5"/></filter>
  <filter id="softGlow" x="-100%" y="-100%" width="300%" height="300%"><feGaussianBlur stdDeviation="18"/></filter>
</defs>
<rect width="960" height="600" fill="url(#background)"/>
<rect width="960" height="600" fill="url(#dots)"/>
<ellipse cx="480" cy="302" rx="430" ry="290" fill="url(#blueAmbient)"/>
<g fill="none" stroke="#68808c" stroke-width=".7" opacity=".3"><path d="M32 57V32H57M903 32h25v25M32 543v25h25M903 568h25v-25"/></g>
<ellipse cx="481" cy="290" rx="291" ry="261" stroke="none" stroke-width="1" opacity="1" fill="url(#blueAmbient)"/><ellipse cx="481" cy="292" rx="238" ry="225" stroke="#7c8cff" stroke-width="0.7" opacity="0.2" fill="none"/><ellipse cx="481" cy="292" rx="238" ry="92" stroke="#7c8cff" stroke-width="0.7" opacity="0.19" fill="none" transform="rotate(-27 481 292)" stroke-dasharray="2 6"/><ellipse cx="481" cy="292" rx="107" ry="225" stroke="#7c8cff" stroke-width="0.7" opacity="0.17" fill="none" transform="rotate(24 481 292)"/><ellipse cx="481" cy="292" rx="192" ry="225" stroke="#7c8cff" stroke-width="0.6" opacity="0.1" fill="none" transform="rotate(-37 481 292)"/><path d="M724.885 301.989L659.522 250.752" stroke="#4dd0c4" stroke-width="0.7" fill="none" opacity="0.24"/><path d="M724.885 301.989L684.712 384.329" stroke="#4dd0c4" stroke-width="0.7" fill="none" opacity="0.24"/><path d="M724.885 301.989L636.343 338.041" stroke="#4dd0c4" stroke-width="0.7" fill="none" opacity="0.24"/><path d="M724.885 301.989Q481 165 481 292" stroke="#4dd0c4" stroke-width="0.7" fill="none" opacity="0.13" stroke-dasharray="2 6"/><circle cx="724.88" cy="301.99" r="12.8" fill="#4dd0c4" stroke="none" stroke-width="1" opacity=".055"/><circle cx="724.88" cy="301.99" r="6.4" fill="none" stroke="#4dd0c4" stroke-width="1" opacity=".35"/><circle cx="724.88" cy="301.99" r="3.2" fill="#4dd0c4" stroke="none" stroke-width="1" opacity="1"/><circle cx="724.28" cy="301.39" r="1.0666666666666667" fill="#d0eee9" stroke="none" stroke-width="1" opacity="1"/><polygon points="724.885,289.989 736.885,301.989 724.885,313.989 712.885,301.989" fill="none" stroke="#7c8cff" stroke-width="0.7" opacity="0.35"/><path d="M684.712 384.329L636.343 338.041" stroke="#7c8cff" stroke-width="0.7" fill="none" opacity="0.24"/><path d="M684.712 384.329L599.667 409.171" stroke="#7c8cff" stroke-width="0.7" fill="none" opacity="0.24"/><circle cx="684.71" cy="384.33" r="8.4" fill="#7c8cff" stroke="none" stroke-width="1" opacity=".055"/><circle cx="684.71" cy="384.33" r="4.2" fill="none" stroke="#7c8cff" stroke-width="1" opacity=".35"/><circle cx="684.71" cy="384.33" r="2.1" fill="#7c8cff" stroke="none" stroke-width="1" opacity="1"/><circle cx="684.11" cy="383.72999999999996" r="0.7000000000000001" fill="#d0eee9" stroke="none" stroke-width="1" opacity="1"/><path d="M606.083 465.729L599.667 409.171" stroke="#7c8cff" stroke-width="0.7" fill="none" opacity="0.24"/><path d="M606.083 465.729L501.087 491.149" stroke="#7c8cff" stroke-width="0.7" fill="none" opacity="0.24"/><circle cx="606.08" cy="465.73" r="8.4" fill="#7c8cff" stroke="none" stroke-width="1" opacity=".055"/><circle cx="606.08" cy="465.73" r="4.2" fill="none" stroke="#7c8cff" stroke-width="1" opacity=".35"/><circle cx="606.08" cy="465.73" r="2.1" fill="#7c8cff" stroke="none" stroke-width="1" opacity="1"/><circle cx="605.48" cy="465.13" r="0.7000000000000001" fill="#d0eee9" stroke="none" stroke-width="1" opacity="1"/><path d="M501.087 491.149L492.344 429.737" stroke="#7c8cff" stroke-width="0.7" fill="none" opacity="0.24"/><path d="M501.087 491.149L404.036 472.143" stroke="#7c8cff" stroke-width="0.7" fill="none" opacity="0.24"/><path d="M501.087 491.149L415.906 428.075" stroke="#7c8cff" stroke-width="0.7" fill="none" opacity="0.24"/><circle cx="501.09" cy="491.15" r="12.8" fill="#7c8cff" stroke="none" stroke-width="1" opacity=".055"/><circle cx="501.09" cy="491.15" r="6.4" fill="none" stroke="#7c8cff" stroke-width="1" opacity=".35"/><circle cx="501.09" cy="491.15" r="3.2" fill="#7c8cff" stroke="none" stroke-width="1" opacity="1"/><circle cx="500.48999999999995" cy="490.54999999999995" r="1.0666666666666667" fill="#d0eee9" stroke="none" stroke-width="1" opacity="1"/><path d="M404.036 472.143L415.906 428.075" stroke="#4dd0c4" stroke-width="0.7" fill="none" opacity="0.24"/><path d="M404.036 472.143L492.344 429.737" stroke="#4dd0c4" stroke-width="0.7" fill="none" opacity="0.24"/><circle cx="404.04" cy="472.14" r="8.4" fill="#ff7a59" stroke="none" stroke-width="1" opacity=".055"/><circle cx="404.04" cy="472.14" r="4.2" fill="none" stroke="#ff7a59" stroke-width="1" opacity=".35"/><circle cx="404.04" cy="472.14" r="2.1" fill="#ff7a59" stroke="none" stroke-width="1" opacity="1"/><circle cx="403.44" cy="471.53999999999996" r="0.7000000000000001" fill="#d0eee9" stroke="none" stroke-width="1" opacity="1"/><polygon points="404.036,460.143 416.036,472.143 404.036,484.143 392.036,472.143" fill="none" stroke="#7c8cff" stroke-width="0.7" opacity="0.35"/><path d="M287.97 423.04L337.907 366.93" stroke="#7c8cff" stroke-width="0.7" fill="none" opacity="0.24"/><path d="M287.97 423.04L253.438 340.611" stroke="#7c8cff" stroke-width="0.7" fill="none" opacity="0.24"/><path d="M287.97 423.04Q481 165 481 292" stroke="#4dd0c4" stroke-width="0.7" fill="none" opacity="0.13" stroke-dasharray="2 6"/><circle cx="287.97" cy="423.04" r="8.4" fill="#7c8cff" stroke="none" stroke-width="1" opacity=".055"/><circle cx="287.97" cy="423.04" r="4.2" fill="none" stroke="#7c8cff" stroke-width="1" opacity=".35"/><circle cx="287.97" cy="423.04" r="2.1" fill="#7c8cff" stroke="none" stroke-width="1" opacity="1"/><circle cx="287.37" cy="422.44" r="0.7000000000000001" fill="#d0eee9" stroke="none" stroke-width="1" opacity="1"/><path d="M253.438 340.611L247.875 253.927" stroke="#7c8cff" stroke-width="0.7" fill="none" opacity="0.24"/><path d="M253.438 340.611L337.907 366.93" stroke="#7c8cff" stroke-width="0.7" fill="none" opacity="0.24"/><circle cx="253.44" cy="340.61" r="12.8" fill="#7c8cff" stroke="none" stroke-width="1" opacity=".055"/><circle cx="253.44" cy="340.61" r="6.4" fill="none" stroke="#7c8cff" stroke-width="1" opacity=".35"/><circle cx="253.44" cy="340.61" r="3.2" fill="#7c8cff" stroke="none" stroke-width="1" opacity="1"/><circle cx="252.84" cy="340.01" r="1.0666666666666667" fill="#d0eee9" stroke="none" stroke-width="1" opacity="1"/><path d="M247.875 253.927L323.82 275.09" stroke="#7c8cff" stroke-width="0.7" fill="none" opacity="0.24"/><path d="M247.875 253.927L338.281 216.447" stroke="#7c8cff" stroke-width="0.7" fill="none" opacity="0.24"/><circle cx="247.87" cy="253.93" r="8.4" fill="#7c8cff" stroke="none" stroke-width="1" opacity=".055"/><circle cx="247.87" cy="253.93" r="4.2" fill="none" stroke="#7c8cff" stroke-width="1" opacity=".35"/><circle cx="247.87" cy="253.93" r="2.1" fill="#7c8cff" stroke="none" stroke-width="1" opacity="1"/><circle cx="247.27" cy="253.33" r="0.7000000000000001" fill="#d0eee9" stroke="none" stroke-width="1" opacity="1"/><path d="M290.258 153.88L338.281 216.447" stroke="#4dd0c4" stroke-width="0.7" fill="none" opacity="0.24"/><path d="M290.258 153.88L384.479 107.271" stroke="#4dd0c4" stroke-width="0.7" fill="none" opacity="0.24"/><circle cx="290.26" cy="153.88" r="8.4" fill="#4dd0c4" stroke="none" stroke-width="1" opacity=".055"/><circle cx="290.26" cy="153.88" r="4.2" fill="none" stroke="#4dd0c4" stroke-width="1" opacity=".35"/><circle cx="290.26" cy="153.88" r="2.1" fill="#4dd0c4" stroke="none" stroke-width="1" opacity="1"/><circle cx="289.65999999999997" cy="153.28" r="0.7000000000000001" fill="#d0eee9" stroke="none" stroke-width="1" opacity="1"/><polygon points="290.258,141.88 302.258,153.88 290.258,165.88 278.258,153.88" fill="none" stroke="#7c8cff" stroke-width="0.7" opacity="0.35"/><path d="M384.479 107.271L422.019 160.008" stroke="#7c8cff" stroke-width="0.7" fill="none" opacity="0.24"/><path d="M384.479 107.271L496.007 94.6952" stroke="#7c8cff" stroke-width="0.7" fill="none" opacity="0.24"/><circle cx="384.48" cy="107.27" r="12.8" fill="#7c8cff" stroke="none" stroke-width="1" opacity=".055"/><circle cx="384.48" cy="107.27" r="6.4" fill="none" stroke="#7c8cff" stroke-width="1" opacity=".35"/><circle cx="384.48" cy="107.27" r="3.2" fill="#7c8cff" stroke="none" stroke-width="1" opacity="1"/><circle cx="383.88" cy="106.67" r="1.0666666666666667" fill="#d0eee9" stroke="none" stroke-width="1" opacity="1"/><path d="M496.007 94.6952L517.353 147.78" stroke="#7c8cff" stroke-width="0.7" fill="none" opacity="0.24"/><path d="M496.007 94.6952L422.019 160.008" stroke="#7c8cff" stroke-width="0.7" fill="none" opacity="0.24"/><path d="M496.007 94.6952L526.072 200.913" stroke="#7c8cff" stroke-width="0.7" fill="none" opacity="0.24"/><path d="M496.007 94.6952Q481 165 481 292" stroke="#4dd0c4" stroke-width="0.7" fill="none" opacity="0.13" stroke-dasharray="2 6"/><circle cx="496.01" cy="94.7" r="8.4" fill="#7c8cff" stroke="none" stroke-width="1" opacity=".055"/><circle cx="496.01" cy="94.7" r="4.2" fill="none" stroke="#7c8cff" stroke-width="1" opacity=".35"/><circle cx="496.01" cy="94.7" r="2.1" fill="#7c8cff" stroke="none" stroke-width="1" opacity="1"/><circle cx="495.40999999999997" cy="94.10000000000001" r="0.7000000000000001" fill="#d0eee9" stroke="none" stroke-width="1" opacity="1"/><path d="M615.083 124.541L599.698 184.031" stroke="#7c8cff" stroke-width="0.7" fill="none" opacity="0.24"/><path d="M615.083 124.541L517.353 147.78" stroke="#7c8cff" stroke-width="0.7" fill="none" opacity="0.24"/><path d="M615.083 124.541L687.644 208.356" stroke="#7c8cff" stroke-width="0.7" fill="none" opacity="0.24"/><circle cx="615.08" cy="124.54" r="8.4" fill="#7c8cff" stroke="none" stroke-width="1" opacity=".055"/><circle cx="615.08" cy="124.54" r="4.2" fill="none" stroke="#7c8cff" stroke-width="1" opacity=".35"/><circle cx="615.08" cy="124.54" r="2.1" fill="#7c8cff" stroke="none" stroke-width="1" opacity="1"/><circle cx="614.48" cy="123.94000000000001" r="0.7000000000000001" fill="#d0eee9" stroke="none" stroke-width="1" opacity="1"/><path d="M687.644 208.356L659.522 250.752" stroke="#4dd0c4" stroke-width="0.7" fill="none" opacity="0.24"/><path d="M687.644 208.356L599.698 184.031" stroke="#4dd0c4" stroke-width="0.7" fill="none" opacity="0.24"/><circle cx="687.64" cy="208.36" r="12.8" fill="#4dd0c4" stroke="none" stroke-width="1" opacity=".055"/><circle cx="687.64" cy="208.36" r="6.4" fill="none" stroke="#4dd0c4" stroke-width="1" opacity=".35"/><circle cx="687.64" cy="208.36" r="3.2" fill="#4dd0c4" stroke="none" stroke-width="1" opacity="1"/><circle cx="687.04" cy="207.76000000000002" r="1.0666666666666667" fill="#d0eee9" stroke="none" stroke-width="1" opacity="1"/><polygon points="687.644,196.356 699.644,208.356 687.644,220.356 675.644,208.356" fill="none" stroke="#7c8cff" stroke-width="0.7" opacity="0.35"/><path d="M636.343 338.041L604.969 274.551" stroke="#7c8cff" stroke-width="0.7" fill="none" opacity="0.24"/><path d="M636.343 338.041L562.962 341.987" stroke="#7c8cff" stroke-width="0.7" fill="none" opacity="0.24"/><circle cx="636.34" cy="338.04" r="8.4" fill="#7c8cff" stroke="none" stroke-width="1" opacity=".055"/><circle cx="636.34" cy="338.04" r="4.2" fill="none" stroke="#7c8cff" stroke-width="1" opacity=".35"/><circle cx="636.34" cy="338.04" r="2.1" fill="#7c8cff" stroke="none" stroke-width="1" opacity="1"/><circle cx="635.74" cy="337.44" r="0.7000000000000001" fill="#d0eee9" stroke="none" stroke-width="1" opacity="1"/><path d="M599.667 409.171L562.962 341.987" stroke="#7c8cff" stroke-width="0.7" fill="none" opacity="0.24"/><circle cx="599.67" cy="409.17" r="8.4" fill="#7c8cff" stroke="none" stroke-width="1" opacity=".055"/><circle cx="599.67" cy="409.17" r="4.2" fill="none" stroke="#7c8cff" stroke-width="1" opacity=".35"/><circle cx="599.67" cy="409.17" r="2.1" fill="#7c8cff" stroke="none" stroke-width="1" opacity="1"/><circle cx="599.0699999999999" cy="408.57" r="0.7000000000000001" fill="#d0eee9" stroke="none" stroke-width="1" opacity="1"/><path d="M492.344 429.737L472.24 385.223" stroke="#7c8cff" stroke-width="0.7" fill="none" opacity="0.24"/><path d="M492.344 429.737L415.906 428.075" stroke="#7c8cff" stroke-width="0.7" fill="none" opacity="0.24"/><path d="M492.344 429.737Q481 165 481 292" stroke="#4dd0c4" stroke-width="0.7" fill="none" opacity="0.13" stroke-dasharray="2 6"/><circle cx="492.34" cy="429.74" r="12.8" fill="#7c8cff" stroke="none" stroke-width="1" opacity=".055"/><circle cx="492.34" cy="429.74" r="6.4" fill="none" stroke="#7c8cff" stroke-width="1" opacity=".35"/><circle cx="492.34" cy="429.74" r="3.2" fill="#7c8cff" stroke="none" stroke-width="1" opacity="1"/><circle cx="491.73999999999995" cy="429.14" r="1.0666666666666667" fill="#d0eee9" stroke="none" stroke-width="1" opacity="1"/><path d="M415.906 428.075L472.24 385.223" stroke="#4dd0c4" stroke-width="0.7" fill="none" opacity="0.24"/><circle cx="415.91" cy="428.08" r="8.4" fill="#4dd0c4" stroke="none" stroke-width="1" opacity=".055"/><circle cx="415.91" cy="428.08" r="4.2" fill="none" stroke="#4dd0c4" stroke-width="1" opacity=".35"/><circle cx="415.91" cy="428.08" r="2.1" fill="#4dd0c4" stroke="none" stroke-width="1" opacity="1"/><circle cx="415.31" cy="427.47999999999996" r="0.7000000000000001" fill="#d0eee9" stroke="none" stroke-width="1" opacity="1"/><polygon points="415.906,416.075 427.906,428.075 415.906,440.075 403.906,428.075" fill="none" stroke="#7c8cff" stroke-width="0.7" opacity="0.35"/><path d="M337.907 366.93L395.938 336.953" stroke="#7c8cff" stroke-width="0.7" fill="none" opacity="0.24"/><path d="M337.907 366.93L363.054 283.87" stroke="#7c8cff" stroke-width="0.7" fill="none" opacity="0.24"/><circle cx="337.91" cy="366.93" r="8.4" fill="#7c8cff" stroke="none" stroke-width="1" opacity=".055"/><circle cx="337.91" cy="366.93" r="4.2" fill="none" stroke="#7c8cff" stroke-width="1" opacity=".35"/><circle cx="337.91" cy="366.93" r="2.1" fill="#7c8cff" stroke="none" stroke-width="1" opacity="1"/><circle cx="337.31" cy="366.33" r="0.7000000000000001" fill="#d0eee9" stroke="none" stroke-width="1" opacity="1"/><path d="M323.82 275.09L363.054 283.87" stroke="#7c8cff" stroke-width="0.7" fill="none" opacity="0.24"/><path d="M323.82 275.09L338.281 216.447" stroke="#7c8cff" stroke-width="0.7" fill="none" opacity="0.24"/><circle cx="323.82" cy="275.09" r="12.8" fill="#7c8cff" stroke="none" stroke-width="1" opacity=".055"/><circle cx="323.82" cy="275.09" r="6.4" fill="none" stroke="#7c8cff" stroke-width="1" opacity=".35"/><circle cx="323.82" cy="275.09" r="3.2" fill="#7c8cff" stroke="none" stroke-width="1" opacity="1"/><circle cx="323.21999999999997" cy="274.48999999999995" r="1.0666666666666667" fill="#d0eee9" stroke="none" stroke-width="1" opacity="1"/><path d="M338.281 216.447L363.054 283.87" stroke="#7c8cff" stroke-width="0.7" fill="none" opacity="0.24"/><circle cx="338.28" cy="216.45" r="8.4" fill="#ff7a59" stroke="none" stroke-width="1" opacity=".055"/><circle cx="338.28" cy="216.45" r="4.2" fill="none" stroke="#ff7a59" stroke-width="1" opacity=".35"/><circle cx="338.28" cy="216.45" r="2.1" fill="#ff7a59" stroke="none" stroke-width="1" opacity="1"/><circle cx="337.67999999999995" cy="215.85" r="0.7000000000000001" fill="#d0eee9" stroke="none" stroke-width="1" opacity="1"/><path d="M422.019 160.008L423.718 216.2" stroke="#4dd0c4" stroke-width="0.7" fill="none" opacity="0.24"/><path d="M422.019 160.008L517.353 147.78" stroke="#4dd0c4" stroke-width="0.7" fill="none" opacity="0.24"/><path d="M422.019 160.008Q481 165 481 292" stroke="#4dd0c4" stroke-width="0.7" fill="none" opacity="0.13" stroke-dasharray="2 6"/><circle cx="422.02" cy="160.01" r="8.4" fill="#4dd0c4" stroke="none" stroke-width="1" opacity=".055"/><circle cx="422.02" cy="160.01" r="4.2" fill="none" stroke="#4dd0c4" stroke-width="1" opacity=".35"/><circle cx="422.02" cy="160.01" r="2.1" fill="#4dd0c4" stroke="none" stroke-width="1" opacity="1"/><circle cx="421.41999999999996" cy="159.41" r="0.7000000000000001" fill="#d0eee9" stroke="none" stroke-width="1" opacity="1"/><polygon points="422.019,148.008 434.019,160.008 422.019,172.008 410.019,160.008" fill="none" stroke="#7c8cff" stroke-width="0.7" opacity="0.35"/><path d="M517.353 147.78L526.072 200.913" stroke="#7c8cff" stroke-width="0.7" fill="none" opacity="0.24"/><path d="M517.353 147.78L599.698 184.031" stroke="#7c8cff" stroke-width="0.7" fill="none" opacity="0.24"/><circle cx="517.35" cy="147.78" r="12.8" fill="#7c8cff" stroke="none" stroke-width="1" opacity=".055"/><circle cx="517.35" cy="147.78" r="6.4" fill="none" stroke="#7c8cff" stroke-width="1" opacity=".35"/><circle cx="517.35" cy="147.78" r="3.2" fill="#7c8cff" stroke="none" stroke-width="1" opacity="1"/><circle cx="516.75" cy="147.18" r="1.0666666666666667" fill="#d0eee9" stroke="none" stroke-width="1" opacity="1"/><path d="M599.698 184.031L526.072 200.913" stroke="#7c8cff" stroke-width="0.7" fill="none" opacity="0.24"/><path d="M599.698 184.031L659.522 250.752" stroke="#7c8cff" stroke-width="0.7" fill="none" opacity="0.24"/><circle cx="599.7" cy="184.03" r="8.4" fill="#7c8cff" stroke="none" stroke-width="1" opacity=".055"/><circle cx="599.7" cy="184.03" r="4.2" fill="none" stroke="#7c8cff" stroke-width="1" opacity=".35"/><circle cx="599.7" cy="184.03" r="2.1" fill="#7c8cff" stroke="none" stroke-width="1" opacity="1"/><circle cx="599.1" cy="183.43" r="0.7000000000000001" fill="#d0eee9" stroke="none" stroke-width="1" opacity="1"/><path d="M659.522 250.752L604.969 274.551" stroke="#7c8cff" stroke-width="0.7" fill="none" opacity="0.24"/><circle cx="659.52" cy="250.75" r="8.4" fill="#7c8cff" stroke="none" stroke-width="1" opacity=".055"/><circle cx="659.52" cy="250.75" r="4.2" fill="none" stroke="#7c8cff" stroke-width="1" opacity=".35"/><circle cx="659.52" cy="250.75" r="2.1" fill="#7c8cff" stroke="none" stroke-width="1" opacity="1"/><circle cx="658.92" cy="250.15" r="0.7000000000000001" fill="#d0eee9" stroke="none" stroke-width="1" opacity="1"/><path d="M562.962 341.987L604.969 274.551" stroke="#4dd0c4" stroke-width="0.7" fill="none" opacity="0.24"/><circle cx="562.96" cy="341.99" r="12.8" fill="#4dd0c4" stroke="none" stroke-width="1" opacity=".055"/><circle cx="562.96" cy="341.99" r="6.4" fill="none" stroke="#4dd0c4" stroke-width="1" opacity=".35"/><circle cx="562.96" cy="341.99" r="3.2" fill="#4dd0c4" stroke="none" stroke-width="1" opacity="1"/><circle cx="562.36" cy="341.39" r="1.0666666666666667" fill="#d0eee9" stroke="none" stroke-width="1" opacity="1"/><polygon points="562.962,329.987 574.962,341.987 562.962,353.987 550.962,341.987" fill="none" stroke="#7c8cff" stroke-width="0.7" opacity="0.35"/><path d="M472.24 385.223L395.938 336.953" stroke="#7c8cff" stroke-width="0.7" fill="none" opacity="0.24"/><path d="M472.24 385.223Q481 165 481 292" stroke="#4dd0c4" stroke-width="0.7" fill="none" opacity="0.13" stroke-dasharray="2 6"/><circle cx="472.24" cy="385.22" r="8.4" fill="#7c8cff" stroke="none" stroke-width="1" opacity=".055"/><circle cx="472.24" cy="385.22" r="4.2" fill="none" stroke="#7c8cff" stroke-width="1" opacity=".35"/><circle cx="472.24" cy="385.22" r="2.1" fill="#7c8cff" stroke="none" stroke-width="1" opacity="1"/><circle cx="471.64" cy="384.62" r="0.7000000000000001" fill="#d0eee9" stroke="none" stroke-width="1" opacity="1"/><path d="M395.938 336.953L363.054 283.87" stroke="#7c8cff" stroke-width="0.7" fill="none" opacity="0.24"/><circle cx="395.94" cy="336.95" r="8.4" fill="#7c8cff" stroke="none" stroke-width="1" opacity=".055"/><circle cx="395.94" cy="336.95" r="4.2" fill="none" stroke="#7c8cff" stroke-width="1" opacity=".35"/><circle cx="395.94" cy="336.95" r="2.1" fill="#7c8cff" stroke="none" stroke-width="1" opacity="1"/><circle cx="395.34" cy="336.34999999999997" r="0.7000000000000001" fill="#d0eee9" stroke="none" stroke-width="1" opacity="1"/><circle cx="363.05" cy="283.87" r="12.8" fill="#7c8cff" stroke="none" stroke-width="1" opacity=".055"/><circle cx="363.05" cy="283.87" r="6.4" fill="none" stroke="#7c8cff" stroke-width="1" opacity=".35"/><circle cx="363.05" cy="283.87" r="3.2" fill="#7c8cff" stroke="none" stroke-width="1" opacity="1"/><circle cx="362.45" cy="283.27" r="1.0666666666666667" fill="#d0eee9" stroke="none" stroke-width="1" opacity="1"/><circle cx="423.72" cy="216.2" r="8.4" fill="#4dd0c4" stroke="none" stroke-width="1" opacity=".055"/><circle cx="423.72" cy="216.2" r="4.2" fill="none" stroke="#4dd0c4" stroke-width="1" opacity=".35"/><circle cx="423.72" cy="216.2" r="2.1" fill="#4dd0c4" stroke="none" stroke-width="1" opacity="1"/><circle cx="423.12" cy="215.6" r="0.7000000000000001" fill="#d0eee9" stroke="none" stroke-width="1" opacity="1"/><polygon points="423.718,204.2 435.718,216.2 423.718,228.2 411.718,216.2" fill="none" stroke="#7c8cff" stroke-width="0.7" opacity="0.35"/><circle cx="526.07" cy="200.91" r="8.4" fill="#7c8cff" stroke="none" stroke-width="1" opacity=".055"/><circle cx="526.07" cy="200.91" r="4.2" fill="none" stroke="#7c8cff" stroke-width="1" opacity=".35"/><circle cx="526.07" cy="200.91" r="2.1" fill="#7c8cff" stroke="none" stroke-width="1" opacity="1"/><circle cx="525.47" cy="200.31" r="0.7000000000000001" fill="#d0eee9" stroke="none" stroke-width="1" opacity="1"/><path d="M604.969 274.551Q481 165 481 292" stroke="#4dd0c4" stroke-width="0.7" fill="none" opacity="0.13" stroke-dasharray="2 6"/><circle cx="604.97" cy="274.55" r="12.8" fill="#7c8cff" stroke="none" stroke-width="1" opacity=".055"/><circle cx="604.97" cy="274.55" r="6.4" fill="none" stroke="#7c8cff" stroke-width="1" opacity=".35"/><circle cx="604.97" cy="274.55" r="3.2" fill="#7c8cff" stroke="none" stroke-width="1" opacity="1"/><circle cx="604.37" cy="273.95" r="1.0666666666666667" fill="#d0eee9" stroke="none" stroke-width="1" opacity="1"/><polygon points="362,213.44 398,230 362,246.56 326,230" fill="none" stroke="#7c8cff" stroke-width="1" opacity="0.22"/><path d="M326 230v41l36 16.560000000000002l36 -16.560000000000002v-41M362 246.56v41" stroke="#7c8cff" stroke-width="1" fill="none" opacity="0.22"/><polygon points="591,202.2 621,216 591,229.8 561,216" fill="none" stroke="#7c8cff" stroke-width="1" opacity="0.23"/><path d="M561 216v34l30 13.8l30 -13.8v-34M591 229.8v34" stroke="#7c8cff" stroke-width="1" fill="none" opacity="0.23"/><path d="M362 247C407 216 441 255 481 280M591 232C547 220 522 258 481 280" stroke="#7c8cff" stroke-width="0.8" fill="none" opacity="0.3" stroke-dasharray="2 6"/><ellipse cx="481" cy="348" rx="97" ry="36" stroke="#4dd0c4" stroke-width="0.8" opacity="0.3" fill="none"/><ellipse cx="481" cy="347" rx="80" ry="29" stroke="#4dd0c4" stroke-width="3" opacity="0.13" fill="none" filter="url(#glow)"/><g opacity="1"><polygon points="420,260 481,288.06 481,359.06 420,331" fill="url(#faceLeft)" stroke="#4dd0c4" stroke-width="1.1" opacity="0.95"/><polygon points="481,288.06 542,260 542,331 481,359.06" fill="url(#faceRight)" stroke="#4dd0c4" stroke-width="1.1" opacity="0.95"/><polygon points="481,231.94 542,260 481,288.06 420,260" fill="url(#faceTop)" stroke="#4dd0c4" stroke-width="1.15" opacity="1"/><path d="M481 288.06L481 359.06" stroke="#d0eee9" stroke-width="1" fill="none" opacity="0.65"/><path d="M420 260L481 231.94" stroke="#4dd0c4" stroke-width="1.7" fill="none" opacity="0.9"/><polygon points="481,239.94 525,260 481,280.06 437,260" fill="none" stroke="#4dd0c4" stroke-width="0.7" opacity="0.4"/><path d="M491.98 304.309L526.75 288.315" stroke="#4dd0c4" stroke-width="0.7" fill="none" opacity="0.25"/><path d="M491.98 318.509L526.75 302.515" stroke="#4dd0c4" stroke-width="0.7" fill="none" opacity="0.25"/><path d="M491.98 332.709L526.75 316.715" stroke="#4dd0c4" stroke-width="0.7" fill="none" opacity="0.25"/><path d="M428 271L428 323" stroke="#4dd0c4" stroke-width="1" fill="none" opacity="0.3"/></g><circle cx="481" cy="260" r="20" fill="#4dd0c4" stroke="none" stroke-width="1" opacity=".055"/><circle cx="481" cy="260" r="10" fill="none" stroke="#4dd0c4" stroke-width="1" opacity=".35"/><circle cx="481" cy="260" r="5" fill="#4dd0c4" stroke="none" stroke-width="1" opacity="1"/><circle cx="480.4" cy="259.4" r="1.6666666666666667" fill="#d0eee9" stroke="none" stroke-width="1" opacity="1"/><path d="M190 204h-57" stroke="#7c8cff" stroke-width="0.6" fill="none" opacity="0.3" stroke-dasharray="2 5"/><path d="M186 204h8M190 200v8" stroke="#7c8cff" stroke-width="1" fill="none" opacity="0.7"/><circle cx="190" cy="204" r="1.3" fill="#d0eee9" stroke="none" stroke-width="1" opacity="1"/><path d="M764 351h63" stroke="#7c8cff" stroke-width="0.6" fill="none" opacity="0.3" stroke-dasharray="2 5"/><path d="M760 351h8M764 347v8" stroke="#7c8cff" stroke-width="1" fill="none" opacity="0.7"/><circle cx="764" cy="351" r="1.3" fill="#d0eee9" stroke="none" stroke-width="1" opacity="1"/><path d="M647 91h45" stroke="#7c8cff" stroke-width="0.6" fill="none" opacity="0.3" stroke-dasharray="2 5"/><path d="M643 91h8M647 87v8" stroke="#7c8cff" stroke-width="1" fill="none" opacity="0.7"/><circle cx="647" cy="91" r="1.3" fill="#d0eee9" stroke="none" stroke-width="1" opacity="1"/><path d="M306 461h-50" stroke="#7c8cff" stroke-width="0.6" fill="none" opacity="0.3" stroke-dasharray="2 5"/><path d="M302 461h8M306 457v8" stroke="#7c8cff" stroke-width="1" fill="none" opacity="0.7"/><circle cx="306" cy="461" r="1.3" fill="#d0eee9" stroke="none" stroke-width="1" opacity="1"/>
<g opacity=".35" stroke="#758b99" stroke-width="1"><path d="M48 550h40M48 546v8M88 546v8"/>
<circle cx="876" cy="551" r="1.2" fill="#596a79" stroke="none" stroke-width="1" opacity="0.45"/><circle cx="881" cy="551" r="1.2" fill="#596a79" stroke="none" stroke-width="1" opacity="0.45"/><circle cx="886" cy="551" r="1.2" fill="#596a79" stroke="none" stroke-width="1" opacity="0.45"/><circle cx="891" cy="551" r="1.2" fill="#4dd0c4" stroke="none" stroke-width="1" opacity="1"/><circle cx="896" cy="551" r="1.2" fill="#596a79" stroke="none" stroke-width="1" opacity="0.45"/><circle cx="901" cy="551" r="1.2" fill="#596a79" stroke="none" stroke-width="1" opacity="0.45"/><circle cx="906" cy="551" r="1.2" fill="#596a79" stroke="none" stroke-width="1" opacity="0.45"/><circle cx="911" cy="551" r="1.2" fill="#596a79" stroke="none" stroke-width="1" opacity="0.45"/></g>
</svg>
